<svg width="125" height="125" viewBox="0 0 125 125" fill="none" xmlns="http://www.w3.org/2000/svg">
<path d="M75 12C75 18.6274 69.6274 24 63 24C56.3726 24 51 18.6274 51 12C51 5.37258 56.3726 0 63 0C69.6274 0 75 5.37258 75 12Z" fill="white"/>
<path fill-rule="evenodd" clip-rule="evenodd" d="M63 38C91.1665 38 114 57.4756 114 81.5C114 115 89 125 63 125C27 125 12 105.524 12 81.5C12 57.4756 34.8335 38 63 38ZM63 45C39.2518 45 20 61.5655 20 82C20 102.435 32.6471 119 63 119C84.9216 119 106 110.494 106 82C106 61.5655 86.7482 45 63 45Z" fill="white"/>
<path d="M6 75C6 72.7909 7.79086 71 10 71H14C16.2091 71 18 72.7909 18 75V89C18 91.2091 16.2091 93 14 93H10C7.79086 93 6 91.2091 6 89V75Z" fill="white"/>
<path d="M107 75C107 72.7909 108.791 71 111 71H115C117.209 71 119 72.7909 119 75V89C119 91.2091 117.209 93 115 93H111C108.791 93 107 91.2091 107 89V75Z" fill="white"/>
<path fill-rule="evenodd" clip-rule="evenodd" d="M41 63C50.9411 63 59 71.0589 59 81C59 90.9411 50.9411 99 41 99C31.0589 99 23 90.9411 23 81C23 71.0589 31.0589 63 41 63ZM41 69C34.3726 69 29 74.3726 29 81C29 87.6274 34.3726 93 41 93C47.6274 93 53 87.6274 53 81C53 74.3726 47.6274 69 41 69Z" fill="white"/>
<path fill-rule="evenodd" clip-rule="evenodd" d="M86 63C95.9411 63 104 71.0589 104 81C104 90.9411 95.9411 99 86 99C76.0589 99 68 90.9411 68 81C68 71.0589 76.0589 63 86 63ZM86 69C79.3726 69 74 74.3726 74 81C74 87.6274 79.3726 93 86 93C92.6274 93 98 87.6274 98 81C98 74.3726 92.6274 69 86 69Z" fill="white"/>
<path d="M54 74C54 74 59.4637 73 63 73C66.5363 73 72 74 72 74V81C72 81 66.5363 80 63 80C59.4637 80 54 81 54 81V74Z" fill="white"/>
<path d="M53.4406 105.021C53.8064 105.661 54.339 106.188 55.0005 106.514C56.7422 107.371 60.3943 109 63 109C65.6087 109 69.8104 107.367 71.8352 106.511C72.5991 106.188 73.221 105.613 73.6325 104.893L74.2331 103.842C74.7083 103.01 74.7083 101.99 74.2331 101.158C73.5358 99.9377 72.0197 99.4519 70.7137 99.971C68.5088 100.847 65.192 102 63 102C60.9291 102 58.1973 100.971 56.2888 100.119C54.9969 99.5414 53.4372 99.985 52.7352 101.213C52.2796 102.011 52.2796 102.989 52.7352 103.787L53.4406 105.021Z" fill="white"/>
<path d="M47 82C47 84.7614 44.7614 87 42 87C39.2386 87 37 84.7614 37 82C37 79.2386 39.2386 77 42 77C44.7614 77 47 79.2386 47 82Z" fill="white"/>
<path d="M90 82C90 84.7614 87.7614 87 85 87C82.2386 87 80 84.7614 80 82C80 79.2386 82.2386 77 85 77C87.7614 77 90 79.2386 90 82Z" fill="white"/>
<path d="M60 20H66V40H60V20Z" fill="white"/>
</svg>
